<svg xmlns="http://www.w3.org/2000/svg" width="15.312" height="14.609" viewBox="0 0 15.312 14.609"><g transform="translate(2364.599 -4221.006)"><path d="M751.833,4235.082h2.793a.244.244,0,0,0,.245-.245v-9.363a.243.243,0,0,0-.245-.243h-2.793a.243.243,0,0,0-.245.243v9.363A.249.249,0,0,0,751.833,4235.082Zm14.855-5.648v5.4a.245.245,0,0,1-.245.245H763.65a.245.245,0,0,1-.245-.245v-5.026c0-1.323-.474-2.227-1.66-2.227a1.8,1.8,0,0,0-1.682,1.2,2.279,2.279,0,0,0-.105.8v5.26a.245.245,0,0,1-.245.245h-2.794a.244.244,0,0,1-.244-.245c0-1.339.032-7.832,0-9.363a.242.242,0,0,1,.239-.243h2.789a.243.243,0,0,1,.245.243v1.153c-.006.011-.016.021-.022.031h.022v-.031a3.257,3.257,0,0,1,2.953-1.626C765.071,4225,766.688,4226.4,766.688,4229.434Z" transform="translate(-3115.975 0.534)" fill="#fff"/><circle cx="1.756" cy="1.756" r="1.756" transform="translate(-2364.599 4221.006)" fill="#fff"/></g></svg>